# xmcd
#
# Track frame offsets: 
#        150
#        20142
#        47744
#        61601
#
# Disc length: 1143 seconds
#
# Revision: 1
# Processed by: cddbd v1.5.1PL0 Copyright (c) Steve Scherf et al.
# Submitted via: ExactAudioCopy v0.95b2
#
DISCID=2c047504
DTITLE=Styrofoam - A Heart Without A Mind EP
DYEAR=2003
DGENRE=
TTITLE0=A Heart Without A Mind (Radio Mix)
TTITLE1=Fade Out For Eyes (Live at D+M)
TTITLE2=Hard To Find
TTITLE3=Snow Crush Killing Song
EXTD=
EXTT0=
EXTT1=
EXTT2=
EXTT3=
PLAYORDER=
